<?xml version="1.0" encoding="utf-8"?>
<!-- Generator: Adobe Illustrator 25.2.3, SVG Export Plug-In . SVG Version: 6.00 Build 0)  -->
<svg version="1.1" id="Layer_1" xmlns="http://www.w3.org/2000/svg" xmlns:xlink="http://www.w3.org/1999/xlink" x="0px" y="0px"
	 viewBox="0 0 512 512" style="enable-background:new 0 0 512 512;" xml:space="preserve">
<style type="text/css">
	.Drop_x0020_Shadow{fill:none;}
	.Thick_x0020_Blue_x0020_Neon{fill:none;stroke:#0073BC;stroke-width:10;stroke-linecap:round;stroke-linejoin:round;}
	.Illuminating_x0020_Aqua{fill:url(#SVGID_1_);stroke:#FFFFFF;stroke-width:0.25;stroke-miterlimit:1;}
	.Black_x0020_Highlight{fill:url(#SVGID_2_);stroke:#FFFFFF;stroke-width:0.3629;stroke-miterlimit:1;}
	.Bugaboo_GS{fill-rule:evenodd;clip-rule:evenodd;fill:#FFDD00;}
	.st0{fill:#035566;stroke:#035566;stroke-linejoin:bevel;}
	.st1{fill:#00B894;stroke:#00B894;stroke-linejoin:bevel;}
	.st2{fill:#009090;stroke:#009090;stroke-linejoin:bevel;}
	.st3{fill:#093141;stroke:#093141;stroke-linejoin:bevel;}
	.st4{fill:#00A495;stroke:#00A495;stroke-linejoin:bevel;}
	.st5{fill:#007C86;stroke:#007C86;stroke-linejoin:bevel;}
	.st6{fill:#074254;stroke:#074254;stroke-linejoin:bevel;}
	.st7{fill:#00101C;stroke:#00101C;stroke-linejoin:bevel;}
	.st8{fill:#00CC8E;stroke:#00CC8E;stroke-linejoin:bevel;}
	.st9{fill:#08202E;stroke:#08202E;stroke-linejoin:bevel;}
	.st10{fill:#006877;stroke:#006877;stroke-linejoin:bevel;}
</style>
<linearGradient id="SVGID_1_" gradientUnits="userSpaceOnUse" x1="0" y1="0" x2="6.123234e-17" y2="-1">
	<stop  offset="0" style="stop-color:#1D59F4"/>
	<stop  offset="0.618" style="stop-color:#2D65EE"/>
	<stop  offset="0.6292" style="stop-color:#3864F3"/>
	<stop  offset="0.9831" style="stop-color:#00DDFC"/>
</linearGradient>
<linearGradient id="SVGID_2_" gradientUnits="userSpaceOnUse" x1="0" y1="0" x2="6.123234e-17" y2="-1">
	<stop  offset="0" style="stop-color:#060606"/>
	<stop  offset="0.618" style="stop-color:#000000"/>
	<stop  offset="0.6292" style="stop-color:#000000"/>
	<stop  offset="0.9831" style="stop-color:#000000"/>
</linearGradient>
<g>
	<path d="M210.5,212.7c-0.8-12.2-4.1-23-9.6-32.4c-1.7-2.9-3.7-5.6-5.8-8.2c-6-7.2-13.6-13-22.8-17.5c-10.2-5-22.4-7.9-36.3-8.8
		c-3.1-0.2-6.3-0.3-9.6-0.3H59.7v219.8H103v-69.6H134c8.9,0,17-0.9,24.2-2.6c4.3-1,8.4-2.4,12.1-4.1c6.3-2.9,11.9-6.4,16.5-10.5
		c1-0.8,1.9-1.7,2.8-2.6c1.5-1.5,2.9-3,4.2-4.7c1-1.2,1.9-2.4,2.7-3.7l0,0c2.7-3.9,5-7.9,6.9-12.2c1.2-2.8,2.3-5.7,3.2-8.8
		c1.9-6.4,3.1-12.8,3.7-19.1c0.2-2.7,0.4-5.3,0.4-7.9C210.8,217.2,210.7,214.9,210.5,212.7z M133.8,253.6H103v-66.3H134
		c7.6,0,13.6,1.3,18.1,3.9c4.5,2.6,7.8,5.8,10,9.5c2.2,3.8,3.6,7.5,4.3,11.2c0.7,3.7,1,6.6,1,8.8c0,0.5,0,1.1-0.1,1.6
		c-0.2,2.4-0.7,5.2-1.6,8.2c-0.2,0.8-0.5,1.7-0.9,2.5c-1.1,2.9-2.6,5.7-4.5,8.4c-2.5,3.5-5.9,6.4-10.3,8.7c-1.9,1-4.1,1.8-6.4,2.4
		C140.8,253.2,137.4,253.6,133.8,253.6z"/>
	<g>
		<g>
			<g>
				<polygon points="452,146.5 452,365.9 406.8,365.9 406.8,225.3 392.9,243.2 390.6,246.1 372.9,268.9 369.1,273.7 359.1,286.6 
					351.8,296 345.6,303.9 336.5,292.3 329.5,283.5 311.8,261 295,239.9 283.2,224.9 283.2,365.9 238,365.9 238,146.5 281,146.5 
					302.4,174.8 307.4,181.5 326.9,207.3 331.6,213.6 338.1,222.1 340.8,225.8 345.5,232 349.2,227 355,219.1 363.9,207.1 
					388.3,174.3 393,167.9 408.9,146.5 				"/>
			</g>
		</g>
	</g>
	<path class="st0" d="M255.3,266.6l8-14.9l-19,1L255.3,266.6z"/>
	<polygon class="st1" points="263.2,251.7 244.2,252.7 238,244.1 238,239.9 	"/>
	<polygon class="st0" points="244.2,252.7 238,246.8 238,244.1 	"/>
	<polygon class="st2" points="255.2,266.6 238,268.6 238,255.9 244.2,252.7 	"/>
	<polygon class="st3" points="269.2,221.7 263.2,251.7 238,239.9 238,235.6 	"/>
	<polygon class="st4" points="238.2,178 238,181.6 238,179.6 	"/>
	<polygon class="st0" points="244.2,252.7 238,255.9 238,246.8 	"/>
	<polygon class="st3" points="274.2,309.5 238,307.4 238,279.2 255.2,266.6 	"/>
	<path class="st5" d="M255.3,266.6l19,42.9l-11-57.8L255.3,266.6z"/>
	<path class="st6" d="M335.3,224.9l-6-11.4l-60,8.2L335.3,224.9z"/>
	<path class="st2" d="M210.5,212.7c0.2,2.2,0.2,4.5,0.2,6.9c0,2.6-0.1,5.3-0.4,7.9l-8.2-4.5L210.5,212.7z"/>
	<polygon class="st2" points="238.2,178 238,179.6 238,178.4 	"/>
	<path class="st0" d="M210.4,227.5c-0.5,6.3-1.8,12.7-3.7,19.1c-0.9,3-2,5.9-3.2,8.8l-1.3-32.3L210.4,227.5z"/>
	<path class="st5" d="M203.6,255.3c-1.9,4.3-4.2,8.4-6.9,12.2l0,0l5.6-44.5L203.6,255.3z"/>
	<polygon class="st2" points="255.2,266.6 238,279.2 238,268.6 	"/>
	<polygon class="st0" points="269.2,221.7 238,235.6 238,181.6 238.2,178 	"/>
	<polygon class="st6" points="283.2,316.4 283.2,348.3 272.2,360.3 274.2,309.5 	"/>
	<polygon class="st6" points="335.2,224.9 295,239.9 283.2,224.9 283.2,244.3 263.2,251.7 269.2,221.7 	"/>
	<polygon class="st7" points="263.2,251.7 283.2,244.3 283.2,255.6 	"/>
	<polygon class="st7" points="358.2,269.9 311.8,261 295,239.9 335.2,224.9 	"/>
	<polygon class="st8" points="307.4,181.5 269.2,221.7 238.2,178 302.4,174.8 	"/>
	<polygon class="st9" points="263.2,251.7 283.2,255.6 283.2,305.3 274.2,309.5 	"/>
	<polygon class="st9" points="358.2,269.9 329.5,283.5 311.8,261 	"/>
	<polygon class="st4" points="338.1,222.1 340.8,225.8 335.2,224.9 	"/>
	<polygon class="st4" points="375.2,230.9 349.2,227 355,219.1 	"/>
	<polygon class="st2" points="338.1,222.1 335.2,224.9 329.2,213.5 331.6,213.6 	"/>
	<polygon class="st3" points="329.2,213.5 269.2,221.7 307.4,181.5 326.9,207.3 	"/>
	<polygon class="st1" points="331.6,213.6 329.2,213.5 326.9,207.3 	"/>
	<polygon class="st5" points="274.2,309.5 283.2,305.3 283.2,316.4 	"/>
	<polygon class="st5" points="358.2,269.9 336.5,292.3 329.5,283.5 	"/>
	<polygon class="st0" points="274.2,309.5 272.2,360.3 238,359.9 238,340.4 	"/>
	<polygon class="st8" points="358.2,269.9 351.8,296 345.6,303.9 336.5,292.3 	"/>
	<polygon class="st5" points="274.2,309.5 238,340.4 238,307.4 	"/>
	<polygon class="st7" points="279.1,365.9 272.4,365.9 272.2,360.3 	"/>
	<path class="st0" d="M158.3,293.1c-7.2,1.8-15.3,2.6-24.2,2.6h-13.4l-22.4-19.2L158.3,293.1z"/>
	<polygon class="st5" points="272.2,360.3 262.5,365.9 238,365.9 238,359.9 	"/>
	<polygon class="st10" points="283.2,348.3 283.2,365.9 279.1,365.9 272.2,360.3 	"/>
	<polygon class="st4" points="302.4,174.8 238.2,178 279.8,146.5 281,146.5 	"/>
	<path class="st8" d="M388.3,240.5l-13-9.6l-17,39L388.3,240.5z"/>
	<polygon class="st0" points="375.2,230.9 358.2,269.9 335.2,224.9 340.8,225.8 345.5,232 349.2,227 	"/>
	<path class="st10" d="M167.4,222.4c0-0.6,0.1-1.1,0.1-1.6c0-2.2-0.3-5.1-1-8.8c-0.7-3.7-2.1-7.4-4.3-11.2c-2.2-3.8-5.5-7-10-9.5
		c-4.5-2.6-10.5-3.9-18.1-3.9h-1.6l-1.2-24.1l71,59.8L167.4,222.4z"/>
	<path class="st5" d="M202.2,223l-5.6,44.5l0,0c-0.9,1.2-1.8,2.5-2.7,3.7c-1.3,1.6-2.7,3.2-4.2,4.7l-46-23.4
		c2.4-0.6,4.5-1.3,6.4-2.4c4.4-2.3,7.8-5.2,10.3-8.7c1.9-2.7,3.4-5.5,4.5-8.4L202.2,223z"/>
	<path class="st6" d="M186.9,278.5c-4.7,4.1-10.2,7.6-16.5,10.5c-3.7,1.7-7.7,3-12.1,4.1l-60-16.6L186.9,278.5z"/>
	<path class="st1" d="M200.9,180.3c5.5,9.3,8.8,20.1,9.6,32.4l-8.3,10.4l-71-59.8l63.9,8.8C197.3,174.6,199.2,177.4,200.9,180.3z"/>
	<polygon class="st1" points="238.2,178 238,178.4 238,178 	"/>
	<polygon class="st5" points="359.1,286.6 351.8,296 358.2,269.9 	"/>
	<path class="st7" d="M202.2,223L165,233.1c0.3-0.8,0.6-1.7,0.8-2.5c0.9-3.1,1.4-5.8,1.6-8.2L202.2,223z"/>
	<polygon class="st2" points="390.6,246.1 372.9,268.9 358.2,269.9 388.2,240.5 	"/>
	<polygon class="st1" points="405.2,190.9 363.9,207.1 388.3,174.3 	"/>
	<polygon class="st3" points="372.9,268.9 369.1,273.7 358.2,269.9 	"/>
	<polygon class="st10" points="272.4,365.9 262.5,365.9 272.2,360.3 	"/>
	<polygon class="st3" points="279.8,146.5 238.2,178 244.3,146.5 	"/>
	<path class="st1" d="M403.3,212.6l-28,18.3l13,9.6L403.3,212.6z"/>
	<polygon class="st7" points="405.2,190.9 375.2,230.9 355,219.1 363.9,207.1 	"/>
	<path class="st6" d="M195.1,172.1l-63.9-8.8l4.7-17.4c14,0.9,26.1,3.8,36.4,8.8C181.5,159.1,189.1,164.9,195.1,172.1z"/>
	<polygon class="st6" points="238.2,178 238,178 238,177.9 	"/>
	<polygon class="st0" points="117.8,253.6 98.2,276.5 59.7,223.7 59.7,205.7 103,230.4 103,253.6 	"/>
	<polygon class="st0" points="369.1,273.7 359.1,286.6 358.2,269.9 	"/>
	<polygon class="st4" points="406.8,251.2 406.8,225.3 392.9,243.2 388.2,240.5 403.2,212.6 419.2,258.3 	"/>
	<polygon class="st2" points="388.2,240.5 392.9,243.2 390.6,246.1 	"/>
	<polygon class="st2" points="419.2,258.3 406.8,263.7 406.8,251.2 	"/>
	<polygon class="st6" points="112.6,187.3 107,187.3 100.2,167.7 	"/>
	<path class="st3" d="M189.7,275.9c-0.9,0.9-1.9,1.8-2.8,2.6l-88.6-2l19.5-22.9h16c3.7,0,7-0.4,10-1.1L189.7,275.9z"/>
	<path class="st7" d="M419.3,210.6l-14-19.7l-2,21.7L419.3,210.6z"/>
	<path class="st6" d="M403.3,212.6l2-21.7l-30,40L403.3,212.6z"/>
	<polygon class="st1" points="452,284 452,286.5 406.8,286.7 406.2,286.7 406.8,285.6 419.2,258.3 	"/>
	<polygon class="st7" points="419.2,258.3 406.8,285.6 406.8,263.7 	"/>
	<polygon class="st5" points="238.2,178 238,177.9 238,177.8 	"/>
	<polygon class="st4" points="132.5,187.3 112.6,187.3 100.2,167.7 131.2,163.2 	"/>
	<polygon class="st4" points="244.3,146.5 238.2,178 238,177.8 238,146.5 	"/>
	<path class="st10" d="M419.3,258.3v-47.7l-16,2L419.3,258.3z"/>
	<path class="st10" d="M135.9,145.8l-4.7,17.4l-8.8-17.8h3.8C129.6,145.5,132.8,145.6,135.9,145.8z"/>
	<polygon class="st7" points="131.2,163.2 100.2,167.7 114.9,145.5 122.5,145.5 	"/>
	<polygon class="st8" points="433.2,312.6 406.8,331.7 406.8,287.2 	"/>
	<path class="st6" d="M419.3,210.6l2-20.6l-16,0.9L419.3,210.6z"/>
	<polygon class="st7" points="425.2,184.9 405.2,190.9 388.3,174.3 393,167.9 	"/>
	<path class="st3" d="M429.3,215l-8-25l-2,20.6L429.3,215z"/>
	<path class="st3" d="M419.3,258.3l10-43.3l-10-4.4V258.3z"/>
	<polygon class="st8" points="114.9,145.5 100.2,167.7 69.2,149.2 87.5,145.5 	"/>
	<path class="st0" d="M429.3,215l-4-30.1l-4,5.1L429.3,215z"/>
	<path class="st1" d="M421.3,190l4-5.1l-20,6L421.3,190z"/>
	<polygon class="st4" points="427.2,340.3 416,365.9 406.8,365.9 406.8,342.4 	"/>
	<polygon class="st0" points="433.2,312.6 427.2,340.3 406.8,342.4 406.8,331.7 	"/>
	<polygon class="st10" points="452,219.1 452,232.8 419.2,258.3 429.2,215 	"/>
	<polygon class="st9" points="120.6,295.7 103,295.7 103,310.3 98.2,276.5 	"/>
	<polygon class="st1" points="98.2,276.5 94.8,365.3 81.2,365.3 59.7,344.4 59.7,302.5 	"/>
	<polygon class="st5" points="103,310.3 103,365.3 94.8,365.3 98.2,276.5 	"/>
	<polygon class="st5" points="452,290.4 452,292.8 427.2,340.3 433.2,312.6 	"/>
	<polygon class="st10" points="452,286.5 452,290.4 433.2,312.6 406.8,287.2 406.2,286.7 406.8,286.7 	"/>
	<polygon class="st2" points="452,208.9 452,219.1 429.2,215 425.2,184.9 	"/>
	<polygon class="st3" points="87.5,145.5 69.2,149.2 71.1,145.5 	"/>
	<polygon class="st4" points="107,187.3 103,187.3 103,230.4 59.7,205.7 59.7,184 100.2,167.7 	"/>
	<polygon class="st4" points="452,232.8 452,284 419.2,258.3 	"/>
	<polygon class="st5" points="433.9,146.5 425.2,184.9 393,167.9 408.9,146.5 	"/>
	<polygon class="st8" points="452,146.5 452,147.6 425.2,184.9 433.9,146.5 	"/>
	<polygon class="st5" points="71.1,145.5 69.2,149.2 70.1,145.5 	"/>
	<polygon class="st9" points="69.2,149.2 59.7,162.3 59.7,154.5 	"/>
	<polygon class="st3" points="100.2,167.7 59.7,184 59.7,162.3 69.2,149.2 	"/>
	<polygon class="st8" points="98.2,276.5 59.7,302.5 59.7,285.3 	"/>
	<polygon class="st9" points="441.9,365.9 416,365.9 427.2,340.3 	"/>
	<polygon class="st0" points="98.2,276.5 59.7,285.3 59.7,266.4 	"/>
	<polygon class="st0" points="98.2,276.5 59.7,266.4 59.7,223.7 	"/>
	<polygon class="st1" points="452,147.6 452,208.9 425.2,184.9 	"/>
	<polygon class="st10" points="81.2,365.3 59.7,365.3 59.7,344.4 	"/>
	<polygon class="st5" points="70.1,145.5 69.2,149.2 67.5,145.5 	"/>
	<polygon class="st8" points="69.2,149.2 59.7,154.5 59.7,145.5 67.5,145.5 	"/>
	<polygon class="st10" points="452,292.8 452,337.1 427.2,340.3 	"/>
	<polygon class="st4" points="452,337.1 452,365.9 441.9,365.9 427.2,340.3 	"/>
</g>
<g>
</g>
<g>
</g>
<g>
</g>
<g>
</g>
<g>
</g>
<g>
</g>
<g>
</g>
<g>
</g>
<g>
</g>
<g>
</g>
<g>
</g>
</svg>
